<svg preserveAspectRatio="none" id="visual" viewBox="0 0 900 900" width="900" height="900" xmlns="http://www.w3.org/2000/svg" xmlns:xlink="http://www.w3.org/1999/xlink" version="1.1"><rect x="0" y="0" width="900" height="900" fill="#f8f8ff"></rect><path d="M0 540L12.5 539.8C25 539.7 50 539.3 75 538.5C100 537.7 125 536.3 150 543.5C175 550.7 200 566.3 225 577C250 587.7 275 593.3 300 592.2C325 591 350 583 375 576.5C400 570 425 565 450 566.3C475 567.7 500 575.3 525 589.3C550 603.3 575 623.7 600 614.2C625 604.7 650 565.3 675 554.3C700 543.3 725 560.7 750 573C775 585.3 800 592.7 825 595.3C850 598 875 596 887.5 595L900 594L900 901L887.5 901C875 901 850 901 825 901C800 901 775 901 750 901C725 901 700 901 675 901C650 901 625 901 600 901C575 901 550 901 525 901C500 901 475 901 450 901C425 901 400 901 375 901C350 901 325 901 300 901C275 901 250 901 225 901C200 901 175 901 150 901C125 901 100 901 75 901C50 901 25 901 12.5 901L0 901Z" fill="#fc0e0e"></path><path d="M0 618L12.5 623.3C25 628.7 50 639.3 75 645C100 650.7 125 651.3 150 659.5C175 667.7 200 683.3 225 684.3C250 685.3 275 671.7 300 669.3C325 667 350 676 375 685.2C400 694.3 425 703.7 450 706.5C475 709.3 500 705.7 525 686.7C550 667.7 575 633.3 600 625.7C625 618 650 637 675 637.8C700 638.7 725 621.3 750 627.5C775 633.7 800 663.3 825 671.7C850 680 875 667 887.5 660.5L900 654L900 901L887.5 901C875 901 850 901 825 901C800 901 775 901 750 901C725 901 700 901 675 901C650 901 625 901 600 901C575 901 550 901 525 901C500 901 475 901 450 901C425 901 400 901 375 901C350 901 325 901 300 901C275 901 250 901 225 901C200 901 175 901 150 901C125 901 100 901 75 901C50 901 25 901 12.5 901L0 901Z" fill="#c41216"></path><path d="M0 737L12.5 735.2C25 733.3 50 729.7 75 736.2C100 742.7 125 759.3 150 765.3C175 771.3 200 766.7 225 758.3C250 750 275 738 300 726C325 714 350 702 375 696.3C400 690.7 425 691.3 450 703.2C475 715 500 738 525 745C550 752 575 743 600 736.2C625 729.3 650 724.7 675 728.5C700 732.3 725 744.7 750 749.8C775 755 800 753 825 745.3C850 737.7 875 724.3 887.5 717.7L900 711L900 901L887.5 901C875 901 850 901 825 901C800 901 775 901 750 901C725 901 700 901 675 901C650 901 625 901 600 901C575 901 550 901 525 901C500 901 475 901 450 901C425 901 400 901 375 901C350 901 325 901 300 901C275 901 250 901 225 901C200 901 175 901 150 901C125 901 100 901 75 901C50 901 25 901 12.5 901L0 901Z" fill="#8e1517"></path><path d="M0 772L12.5 777.5C25 783 50 794 75 794C100 794 125 783 150 780.3C175 777.7 200 783.3 225 791.2C250 799 275 809 300 815.3C325 821.7 350 824.3 375 821.7C400 819 425 811 450 811.2C475 811.3 500 819.7 525 822.3C550 825 575 822 600 814.5C625 807 650 795 675 786.5C700 778 725 773 750 783C775 793 800 818 825 821.3C850 824.7 875 806.3 887.5 797.2L900 788L900 901L887.5 901C875 901 850 901 825 901C800 901 775 901 750 901C725 901 700 901 675 901C650 901 625 901 600 901C575 901 550 901 525 901C500 901 475 901 450 901C425 901 400 901 375 901C350 901 325 901 300 901C275 901 250 901 225 901C200 901 175 901 150 901C125 901 100 901 75 901C50 901 25 901 12.5 901L0 901Z" fill="#5a1413"></path></svg>